<?xml version="1.0" encoding="UTF-8" standalone="no"?>
<svg width="20px" height="25px" viewBox="0 0 20 25" version="1.1" xmlns="http://www.w3.org/2000/svg" xmlns:xlink="http://www.w3.org/1999/xlink">
    <!-- Generator: sketchtool 45.2 (43514) - http://www.bohemiancoding.com/sketch -->
    <title>B3A4E7C5-5AB2-4AA3-BC56-1FA40AF3D336</title>
    <desc>Created with sketchtool.</desc>
    <defs></defs>
    <g id="Symbols" stroke="none" stroke-width="1" fill="none" fill-rule="evenodd">
        <g id="icon-/-behaviorial-skills" transform="translate(-5.000000, -3.000000)" fill="#6F7173">
            <g id="behavioral-icon" transform="translate(5.000000, 3.000000)">
                <path d="M17.5481557,16.0133601 C19.0648281,14.3144218 20,12.0283996 20,9.51379563 C20,4.2596232 15.9438224,0 10.9406707,0 C5.93527637,0 1.88022011,4.25932913 1.88022011,9.51467784 C1.88022011,9.82139424 1.8977411,10.1223468 1.92402257,10.4198588 C1.60973819,11.0872537 1.18376806,11.9729083 0.826760512,12.7138504 C0.638408545,13.1044066 0.469781,13.4536163 0.346040812,13.707488 C0.284717372,13.8349944 0.234343846,13.9383811 0.19930188,14.0119107 C0.181780897,14.0486696 0.167545449,14.0773886 0.157688845,14.0992146 L0.14454951,14.1256339 L0.133596793,14.1509064 L0.131407371,14.1543529 C0.045991879,14.3542303 0,14.5747867 0,14.8033684 C0,15.6809948 0.676758472,16.3943531 1.51445768,16.3943531 L2.19121616,16.3943531 L2.18464509,19.2316709 L2.18464509,19.2328207 C2.1857412,20.359702 3.05522768,21.2729405 4.12838087,21.2729405 L6.97238679,21.2717907 L7.94041408,24.6844885 C7.97217051,24.7970619 8.04553998,24.8912559 8.14409481,24.9475441 C8.24374575,25.0026825 8.35872544,25.0153187 8.46493904,24.9808565 L18.7507399,21.6990205 C18.9730377,21.6277994 19.0978796,21.3819822 19.0310756,21.1487836 L17.5481557,16.0133601 Z M8.62787297,24.0062189 L7.69048637,20.7037978 C7.63682731,20.5165567 7.47366351,20.3879064 7.28750377,20.3890533 L4.1292415,20.3902031 C3.82373162,20.3902031 3.55104907,20.2615469 3.34957178,20.0513447 C3.14917659,19.8399809 3.02654092,19.5539525 3.02654092,19.2322972 L3.02654092,19.2334441 L3.03420811,15.9539607 C3.03420811,15.8367909 2.99040565,15.7253673 2.91156123,15.6415099 C2.8327168,15.5576525 2.7264948,15.5117039 2.61370452,15.5117039 L1.51425584,15.5117039 C1.14412859,15.510557 0.841898641,15.1946656 0.840805332,14.8029331 C0.840805332,14.6983996 0.861611849,14.6019089 0.897747124,14.5157548 C0.906507615,14.4973754 0.928410246,14.4525766 0.960166676,14.3870986 C1.22517084,13.8380087 2.177889,11.8794642 2.72978594,10.7020908 C2.7648279,10.6262763 2.77906335,10.5435687 2.77030286,10.4597113 C2.73854643,10.1484074 2.72102545,9.83366289 2.72102545,9.51662459 C2.72102545,7.13073568 3.63976972,4.97586921 5.12795994,3.41229195 C6.61724348,1.85003802 8.66944115,0.883954889 10.9393195,0.883954889 C13.2104874,0.883954889 15.2626571,1.84886173 16.7506791,3.41229195 C18.2388693,4.97569276 19.1576136,7.13082685 19.1587069,9.51662459 C19.1587069,11.8875747 18.2476158,14.0276788 16.7758532,15.5886094 C16.6674418,15.7034795 16.628021,15.8723412 16.6729168,16.0274256 L18.1074507,20.9839949 L8.62787297,24.0062189 Z" id="Fill-1"></path>
                <path d="M10.5454122,15.0107483 C10.4657448,15.0112409 10.3893549,14.9777798 10.3331249,14.918732 L6.85398813,11.2656383 L6.8286816,11.2380827 C5.67350046,9.99315877 5.59058892,8.06480403 6.65856381,6.94380816 C7.66753747,5.88438583 9.35933371,5.89964064 10.5467991,6.93249113 C11.7333767,5.8996482 13.4260847,5.88586722 14.4335947,6.94380816 C15.5011378,8.06472845 15.4219455,9.9946452 14.2559788,11.2445071 L14.2320783,11.2720628 L10.7576204,14.918732 C10.7013843,14.9777798 10.6249933,15.0112396 10.545333,15.0107483 L10.5454122,15.0107483 Z M8.53495105,6.78095829 C7.99321346,6.77160889 7.47021523,6.99058288 7.08307129,7.38816543 C6.24327965,8.26994665 6.32856649,9.79782156 7.26536606,10.8030521 L7.28692351,10.8271638 L10.545315,14.2509943 L13.8074257,10.8261561 L13.8280461,10.8035207 C14.7648457,9.79577079 14.8463895,8.26789588 14.0094051,7.38951582 C13.1719529,6.51166483 11.7144946,6.59581195 10.7579719,7.57846893 L10.757504,7.57846893 C10.6375338,7.69312065 10.4543032,7.69312065 10.334333,7.57846893 C9.85585571,7.07655907 9.21054782,6.790673 8.53477949,6.78083484 L8.53495105,6.78095829 Z" id="Page-1"></path>
            </g>
        </g>
    </g>
</svg>