<?xml version="1.0" encoding="utf-8"?>
<!-- Generator: Adobe Illustrator 21.1.0, SVG Export Plug-In . SVG Version: 6.00 Build 0)  -->
<!DOCTYPE svg PUBLIC "-//W3C//DTD SVG 1.1//EN" "http://www.w3.org/Graphics/SVG/1.1/DTD/svg11.dtd">
<svg version="1.1" id="Layer_1" xmlns="http://www.w3.org/2000/svg" xmlns:xlink="http://www.w3.org/1999/xlink" x="0px" y="0px"
	 viewBox="0 0 16 16" style="enable-background:new 0 0 16 16;" xml:space="preserve">
<style type="text/css">
	.st0{fill:#FFFFFF;}
</style>
<path class="st0" d="M6.3,11.5c-0.2,0-0.3-0.1-0.4-0.2L3.2,8.5c-0.2-0.2-0.2-0.6,0-0.8c0.2-0.2,0.6-0.2,0.8,0c0,0,0,0,0,0l2.4,2.4
	L12,4.2c0.2-0.2,0.6-0.2,0.8,0c0,0,0,0,0,0c0.2,0.2,0.2,0.6,0,0.8l-6.1,6.3C6.6,11.4,6.5,11.5,6.3,11.5"/>
</svg>
