<svg xmlns="http://www.w3.org/2000/svg" width="43" height="48" viewBox="0 0 43 48">
    <g fill="none" fill-rule="evenodd">
        <path fill="#000" d="M21.644 44.153H2.954a2.89 2.89 0 0 1-2.88-2.88V3.962c0-.794.323-1.514.844-2.036a2.873 2.873 0 0 1 2.036-.845h7.136V.554a.48.48 0 0 1 .48-.48h12.721a.48.48 0 0 1 .48.48v.528h7.136a2.888 2.888 0 0 1 2.881 2.882V24.53a11.903 11.903 0 0 1 4.96 2.979 11.894 11.894 0 0 1 3.498 8.439 11.89 11.89 0 0 1-.905 4.561 11.96 11.96 0 0 1-6.468 6.468 11.888 11.888 0 0 1-4.562.905c-1.613 0-3.154-.322-4.562-.905a11.963 11.963 0 0 1-4.105-2.825z"/>
        <path fill="#FFF" d="M20.56 29.068a11.884 11.884 0 0 0-2.183 6.88c0 1.473.268 2.884.757 4.189H4.464V5.098h5.626v1.545c0 .265.215.48.48.48h12.721a.48.48 0 0 0 .48-.48V5.098h5.626V24.05a11.872 11.872 0 0 0-3.648.87 11.96 11.96 0 0 0-4.435 3.189l-.754.96z"/>
        <path fill="#FFF" d="M22.515 43.734a10.995 10.995 0 0 0 3.56 2.384c1.292.535 2.71.83 4.2.83 1.488 0 2.906-.295 4.197-.83a10.993 10.993 0 0 0 3.562-2.384 10.98 10.98 0 0 0 2.384-3.562c.535-1.29.83-2.709.83-4.198a10.941 10.941 0 0 0-3.213-7.76 10.993 10.993 0 0 0-4.86-2.827 11.05 11.05 0 0 0-7.1.443 10.98 10.98 0 0 0-3.56 2.384 10.933 10.933 0 0 0-3.215 7.76 10.939 10.939 0 0 0 .964 4.509 11.027 11.027 0 0 0 2.25 3.25"/>
        <path fill="#000" d="M24.358 22.835a.48.48 0 0 1 0 .96H9.502a.48.48 0 0 1 0-.96h14.856zM24.358 17.871H9.502a.48.48 0 0 0 0 .96h14.856a.48.48 0 0 0 0-.96M24.358 12.908H9.502a.48.48 0 0 0 0 .96h14.856a.48.48 0 0 0 0-.96"/>
        <path fill="#87D1D7" d="M32.828 24.28V3.965c0-1.06-.861-1.922-1.92-1.922H23.77v2.096h6.106a.48.48 0 0 1 .48.48v19.397c.847.003 1.673.094 2.47.266M19.543 41.097a11.94 11.94 0 0 0 1.284 2.096H2.954c-1.06 0-1.92-.86-1.92-1.921V3.964c0-.53.215-1.01.563-1.358a1.915 1.915 0 0 1 1.357-.564h7.136v2.096H3.984a.48.48 0 0 0-.48.48v36c0 .264.215.48.48.48h15.56z"/>
        <path fill="#87D1D7" d="M11.05 6.163h11.76v-5.13H11.05z"/>
    </g>
</svg>
