<svg xmlns="http://www.w3.org/2000/svg" xmlns:xlink="http://www.w3.org/1999/xlink" width="79" height="76" viewBox="0 0 79 76">
    <defs>
        <path id="a" d="M16.727.171H.964v21.912h15.763V.171z"/>
        <path id="c" d="M36.3.647v31.47H.764V.648H36.3z"/>
    </defs>
    <g fill="none" fill-rule="evenodd">
        <path fill="#BBDDA1" d="M17.45 30.522l-1.851-6.3 4.335-1.277 1.853 6.3zM71.927 52.295c-2.436-8.504-10.262-14.73-19.55-14.73-3.417 0-6.635.849-9.467 2.338a17.81 17.81 0 0 1-.06-1.31c0-4.897 1.983-9.329 5.198-12.553a17.729 17.729 0 0 1 12.57-5.216c4.894 0 9.33 1.993 12.553 5.216 3.224 3.224 5.216 7.66 5.216 12.553 0 5.506-2.504 10.427-6.46 13.702"/>
        <path fill="#578E3F" d="M18.482 18.092l-1.7.5-4.335 1.277-1.698.501.5 1.698 1.853 6.3.5 1.7 1.7-.501 4.334-1.278 1.698-.5-.5-1.7-1.853-6.299-.5-1.698zm-1.2 2.199l1.854 6.3-4.335 1.277-1.853-6.3 4.334-1.277zM49.733 34.323c8.98 0 17.012 5.829 19.846 14.28a17.14 17.14 0 0 0 5.572-12.66c0-4.575-1.79-8.884-5.041-12.135-3.253-3.253-7.563-5.044-12.136-5.044a17.111 17.111 0 0 0-12.153 5.044 17.078 17.078 0 0 0-5.016 12.515c2.805-1.327 5.804-2 8.928-2zm19.23 16.352l-.248-.869c-2.412-8.42-10.217-14.3-18.982-14.3-3.234 0-6.328.763-9.192 2.27l-.798.418-.067-.897c-.033-.449-.06-.896-.06-1.354 0-4.891 1.906-9.498 5.369-12.97a18.284 18.284 0 0 1 12.987-5.391c4.892 0 9.498 1.914 12.973 5.391 3.475 3.473 5.389 8.079 5.389 12.97a18.325 18.325 0 0 1-6.674 14.156l-.696.576z"/>
        <path fill="#578E3F" d="M40.01 41.1a17.088 17.088 0 0 0-2.43 2.012 17.054 17.054 0 0 0-5.033 12.144 17.08 17.08 0 0 0 5.033 12.145 17.085 17.085 0 0 0 12.148 5.033 17.103 17.103 0 0 0 12.15-5.033 17.08 17.08 0 0 0 5.033-12.141 17.08 17.08 0 0 0-5.032-12.144 17.093 17.093 0 0 0-12.15-5.032c-3.292 0-6.501.947-9.281 2.737-.082.087-.25.196-.438.28m9.72 32.516c-4.901 0-9.511-1.912-12.985-5.38a18.259 18.259 0 0 1-5.38-12.98c0-4.904 1.91-9.513 5.38-12.981a18.15 18.15 0 0 1 2.65-2.187l.114-.06a.725.725 0 0 0 .216-.137c3.054-1.978 6.485-2.991 10.003-2.991 4.9 0 9.51 1.911 12.985 5.38a18.262 18.262 0 0 1 5.381 12.979 18.258 18.258 0 0 1-5.38 12.976 18.273 18.273 0 0 1-12.985 5.38"/>
        <path fill="#578E3F" d="M2.24 15.471l17.315 58.724 15.076-4.45c-3.77-3.917-5.835-9.025-5.835-14.493A20.91 20.91 0 0 1 35.83 39.61L26.671 8.346 2.24 15.471zm16.514 60.193L.771 14.668l26.703-7.786 9.703 33.126-.289.248a19.733 19.733 0 0 0-6.909 14.996c0 5.479 2.195 10.574 6.182 14.347l.746.704-18.153 5.36zM30.273 7.29l7.18 24.52a20.773 20.773 0 0 1 3.936-8.627l-5.19-17.64-5.926 1.747zm7.78 30.77L28.806 6.49 37 4.075l5.695 19.36-.191.24a19.622 19.622 0 0 0-4.238 11.028l-.213 3.357z"/>
        <g transform="translate(37.368 .107)">
            <mask id="b" fill="#fff">
                <use xlink:href="#a"/>
            </mask>
            <path fill="#578E3F" d="M2.424 4.352l4.584 15.579a20.915 20.915 0 0 1 8.234-4.323l-4.08-13.955-8.738 2.7zm3.984 17.731L.962 3.568 11.96.171l4.766 16.297-.608.14a19.716 19.716 0 0 0-9.009 4.819l-.7.656z" mask="url(#b)"/>
        </g>
        <path fill="#578E3F" d="M52.658 53.97h-5.857a3.324 3.324 0 0 1-2.348-.959 3.206 3.206 0 0 1 0-4.585 3.33 3.33 0 0 1 2.348-.959h8.536a1.287 1.287 0 1 0 0-2.572H51.01v-1.03a1.286 1.286 0 1 0-2.572 0v1.03h-1.641c-1.614 0-3.09.65-4.151 1.696a5.776 5.776 0 0 0 0 8.245 5.873 5.873 0 0 0 4.15 1.698h5.858c.922 0 1.742.364 2.347.959a3.205 3.205 0 0 1 0 4.584 3.33 3.33 0 0 1-2.347.958h-8.542a1.287 1.287 0 0 0 0 2.574h4.326v1.028a1.286 1.286 0 1 0 2.572 0V65.61h1.644c1.613 0 3.09-.65 4.15-1.696a5.774 5.774 0 0 0 1.729-4.124c0-1.61-.664-3.076-1.73-4.123a5.866 5.866 0 0 0-4.145-1.696"/>
    </g>
</svg>
