<svg xmlns="http://www.w3.org/2000/svg" xmlns:xlink="http://www.w3.org/1999/xlink" width="87" height="73" viewBox="0 0 87 73">
    <defs>
        <path id="a" d="M.473.444H31.88V31.85H.473V.444z"/>
        <path id="c" d="M32.144.211v31.407H.736V.21h31.408z"/>
    </defs>
    <g fill="none" fill-rule="evenodd">
        <path fill="#BFE2E4" d="M13.904 55.373a5.604 5.604 0 1 1 11.208 0 5.604 5.604 0 0 1-11.208 0M40.376 16.207a5.603 5.603 0 1 1 11.207-.001 5.603 5.603 0 0 1-11.207 0M66.864 55.373a5.604 5.604 0 1 1 11.208 0 5.604 5.604 0 0 1-11.208 0"/>
        <g transform="translate(27.339 -.045)">
            <mask id="b" fill="#fff">
                <use xlink:href="#a"/>
            </mask>
            <path fill="#008A95" d="M16.177 1.708c-7.961 0-14.439 6.478-14.439 14.44 0 7.96 6.478 14.437 14.44 14.437 7.96 0 14.437-6.476 14.437-14.438 0-7.961-6.476-14.439-14.438-14.439m0 30.142C7.517 31.85.473 24.807.473 16.147S7.518.443 16.177.443c8.66 0 15.703 7.045 15.703 15.704 0 8.66-7.043 15.703-15.703 15.703" mask="url(#b)"/>
        </g>
        <path fill="#008A95" d="M43.516 10.116a4.796 4.796 0 0 0-4.79 4.79c0 2.641 2.148 4.79 4.79 4.79 2.64 0 4.79-2.149 4.79-4.79a4.795 4.795 0 0 0-4.79-4.79m0 10.844a6.061 6.061 0 0 1-6.055-6.054 6.062 6.062 0 0 1 6.055-6.055 6.061 6.061 0 0 1 6.054 6.055 6.061 6.061 0 0 1-6.054 6.054"/>
        <path fill="#008A95" d="M43.552 21.71c3.994 0 7.529 1.96 9.72 4.963.313-.29.61-.592.897-.908-2.43-3.224-6.278-5.32-10.617-5.32-4.382 0-8.264 2.14-10.69 5.419.289.312.59.612.905.898 2.185-3.052 5.753-5.053 9.785-5.053M16.484 41.712c-7.962 0-14.439 6.478-14.439 14.44 0 7.96 6.477 14.437 14.44 14.437 7.96 0 14.437-6.478 14.437-14.438 0-7.96-6.477-14.439-14.438-14.439m0 30.142C7.824 71.854.78 64.81.78 56.151c0-8.659 7.045-15.703 15.704-15.703 8.66 0 15.703 7.044 15.703 15.703 0 8.659-7.043 15.703-15.703 15.703"/>
        <path fill="#008A95" d="M16.484 50.164a4.796 4.796 0 0 0-4.79 4.791c0 2.64 2.148 4.79 4.79 4.79 2.64 0 4.79-2.15 4.79-4.79a4.795 4.795 0 0 0-4.79-4.79m0 10.844a6.061 6.061 0 0 1-6.055-6.054 6.062 6.062 0 0 1 6.055-6.055 6.061 6.061 0 0 1 6.054 6.055 6.061 6.061 0 0 1-6.054 6.054"/>
        <path fill="#008A95" d="M16.52 61.759c3.993 0 7.529 1.961 9.72 4.964.313-.29.61-.594.896-.91-2.43-3.222-6.277-5.32-10.616-5.32-4.382 0-8.264 2.14-10.69 5.419.288.314.59.613.905.9 2.185-3.054 5.753-5.053 9.785-5.053"/>
        <g transform="translate(53.898 40.425)">
            <mask id="d" fill="#fff">
                <use xlink:href="#c"/>
            </mask>
            <path fill="#008A95" d="M16.44 1.476c-7.961 0-14.439 6.478-14.439 14.44 0 7.96 6.478 14.437 14.44 14.437 7.96 0 14.438-6.478 14.438-14.438 0-7.961-6.477-14.44-14.439-14.44m0 30.143C7.78 31.618.736 24.573.736 15.915.736 7.255 7.781.211 16.44.211c8.66 0 15.704 7.045 15.704 15.704 0 8.658-7.044 15.703-15.704 15.703" mask="url(#d)"/>
        </g>
        <path fill="#008A95" d="M70.338 50.353a4.795 4.795 0 0 0-4.79 4.791c0 2.64 2.15 4.79 4.79 4.79s4.79-2.15 4.79-4.79a4.795 4.795 0 0 0-4.79-4.79m0 10.844a6.061 6.061 0 0 1-6.054-6.054 6.061 6.061 0 0 1 6.054-6.055 6.061 6.061 0 0 1 6.054 6.055 6.061 6.061 0 0 1-6.054 6.054"/>
        <path fill="#008A95" d="M70.375 61.948c3.993 0 7.527 1.961 9.72 4.964.312-.29.61-.594.896-.91-2.43-3.222-6.278-5.32-10.616-5.32-4.382 0-8.265 2.14-10.69 5.419.288.313.59.613.905.9 2.184-3.054 5.752-5.053 9.785-5.053M53.398 47.532l-9.25-5.34V35.65h-1.266v6.534l-9.262 5.347.633 1.096 9.257-5.344 9.255 5.344z"/>
    </g>
</svg>
