<?xml version="1.0" encoding="UTF-8" standalone="no"?>
<svg width="30px" height="23px" viewBox="0 0 30 23" version="1.1" xmlns="http://www.w3.org/2000/svg" xmlns:xlink="http://www.w3.org/1999/xlink">
    <!-- Generator: sketchtool 45.2 (43514) - http://www.bohemiancoding.com/sketch -->
    <title>8FCEC971-83C5-402E-8D38-ED13358C073A</title>
    <desc>Created with sketchtool.</desc>
    <defs></defs>
    <g id="Symbols" stroke="none" stroke-width="1" fill="none" fill-rule="evenodd">
        <g id="icon-/-experience" transform="translate(0.000000, -4.000000)" fill="#6F7173">
            <path d="M29.3129771,14.9090909 L28.740458,14.9090909 L18.0916031,14.9090909 L18.0916031,13.5454545 L11.9083969,13.5454545 L11.9083969,14.9090909 L1.25954198,14.9090909 L0.687022901,14.9090909 L0.687022901,7.97727273 C0.687022901,7.66363636 0.94351145,7.40909091 1.25954198,7.40909091 L8.58778626,7.40909091 L21.4122137,7.40909091 L28.740458,7.40909091 C29.0564885,7.40909091 29.3129771,7.66363636 29.3129771,7.97727273 L29.3129771,14.9090909 Z M12.5954198,16.2727273 L17.4045802,16.2727273 L17.4045802,14.2272727 L12.5954198,14.2272727 L12.5954198,16.2727273 Z M28.3969466,25.25 C28.3969466,25.5636364 28.140458,25.8181818 27.8244275,25.8181818 L2.17557252,25.8181818 C1.85954198,25.8181818 1.60305344,25.5636364 1.60305344,25.25 L1.60305344,15.5909091 L11.9083969,15.5909091 L11.9083969,16.9545455 L18.0916031,16.9545455 L18.0916031,15.5909091 L28.3969466,15.5909091 L28.3969466,25.25 Z M10.6039695,4.68181818 L19.3960305,4.68181818 L20.7700763,6.72727273 L9.22992366,6.72727273 L10.6039695,4.68181818 Z M28.740458,6.72727273 L21.5963359,6.72727273 L19.8659542,4.15181818 C19.8018321,4.05636364 19.6946565,4 19.5801527,4 L10.4198473,4 C10.3053435,4 10.1972519,4.05636364 10.1340458,4.15181818 L8.40366412,6.72727273 L1.25954198,6.72727273 C0.56519084,6.72727273 0,7.28818182 0,7.97727273 L0,15.25 C0,15.4381818 0.15389313,15.5909091 0.34351145,15.5909091 L0.916030534,15.5909091 L0.916030534,25.25 C0.916030534,25.9390909 1.48122137,26.5 2.17557252,26.5 L27.8244275,26.5 C28.5187786,26.5 29.0839695,25.9390909 29.0839695,25.25 L29.0839695,15.5909091 L29.6564885,15.5909091 C29.8461069,15.5909091 30,15.4381818 30,15.25 L30,7.97727273 C30,7.28818182 29.4348092,6.72727273 28.740458,6.72727273 L28.740458,6.72727273 Z" id="icon-experience"></path>
        </g>
    </g>
</svg>