<svg xmlns="http://www.w3.org/2000/svg" width="24" height="21" viewBox="0 0 24 21">
    <path fill="#FFF" fill-rule="nonzero" d="M24 6.798v8.106c0 1.103-.76 2.062-1.72 2.062h-.24l1.32 2.878c.04.095.04.24-.04.335-.04.048-.12.096-.16.096-.04 0-.08 0-.12-.048l-4.92-3.261H9.24c-.92 0-1.72-.911-1.72-2.062v-1.056H6.48L1 17.493c-.04.048-.08.048-.12.048-.08 0-.12-.048-.16-.096-.08-.095-.08-.24-.04-.335l1.52-3.262h-.32C.84 13.848 0 12.841 0 11.594V2.53C0 1.282.84.275 1.88.275h14.56c1.04 0 1.88 1.007 1.88 2.254v2.207h3.96c.96.048 1.72.959 1.72 2.062zm-7.56 6.475c.76 0 1.4-.768 1.4-1.679V2.53c0-.91-.64-1.678-1.4-1.678H1.88c-.76 0-1.4.767-1.4 1.678v9.065c0 .911.64 1.679 1.4 1.679h.72c.08 0 .16.048.2.144a.36.36 0 0 1 0 .287l-1.28 2.83 4.8-3.213c.04-.048.08-.048.12-.048h10zm7.08-6.475h-.04v8.201c0 .768-.52 1.44-1.2 1.44h-.64c-.08 0-.16.047-.2.143a.36.36 0 0 0 0 .288l1.12 2.398-4.24-2.83c-.04-.048-.08-.048-.12-.048h-9c-.64 0-1.2-.623-1.2-1.439v-1.055h8.48c1.04 0 1.88-1.007 1.88-2.254V5.36h3.96c.64 0 1.2.624 1.2 1.439zM15.4 4.16c0 .144-.12.288-.24.288h-12c-.12 0-.24-.144-.24-.288s.12-.288.24-.288h12c.12-.048.24.096.24.288zm-.24 2.35c.12 0 .24.144.24.288s-.12.288-.24.288h-12c-.12 0-.24-.144-.24-.288s.12-.288.24-.288h12zm0 2.686c.12 0 .24.144.24.288s-.12.288-.24.288h-12c-.12 0-.24-.144-.24-.288s.12-.288.24-.288h12z"/>
</svg>
