<svg xmlns="http://www.w3.org/2000/svg" width="16" height="16" viewBox="0 0 16 16">
    <path fill="#007DA4" fill-rule="nonzero" d="M15.967 8.711a7.993 7.993 0 0 0-3.298-7.201.452.452 0 0 0-.1-.07A7.973 7.973 0 0 0 4.614.753 8.015 8.015 0 0 0 0 8.001a7.993 7.993 0 0 0 3.33 6.49c.031.027.065.05.101.069a7.973 7.973 0 0 0 7.867.727.453.453 0 0 0 .1-.045 8.015 8.015 0 0 0 4.569-6.503v-.028zm-.873-.712c0 .141-.005.281-.013.421l-2.27 1.308V2.785a7.075 7.075 0 0 1 2.283 5.214zM4.096 10.254V5.745L8 3.491l3.904 2.254v4.509L8 12.508l-3.904-2.254zm7.808-8.174v2.617l-6.017-3.47a7.085 7.085 0 0 1 6.015.853h.002zm-7.079-.42l2.27 1.308L1.08 6.44a7.119 7.119 0 0 1 3.744-4.78zM.901 8c0-.141.005-.281.013-.421l2.27-1.308v6.943A7.075 7.075 0 0 1 .906 8H.9zm3.19 5.919v-2.617l3.68 2.125 2.342 1.346a7.085 7.085 0 0 1-6.015-.854H4.09zm7.079.422l-2.264-1.31 6.013-3.472a7.119 7.119 0 0 1-3.744 4.78l-.005.002z"/>
</svg>
