<svg xmlns="http://www.w3.org/2000/svg" width="20" height="21" viewBox="0 0 20 21">
    <g fill="#575859" fill-rule="evenodd" stroke="#575859" stroke-width=".4">
        <path d="M9.953 7.007a3.169 3.169 0 0 0-3.166 3.165 3.169 3.169 0 0 0 3.166 3.165 3.169 3.169 0 0 0 3.165-3.165 3.169 3.169 0 0 0-3.165-3.165m0 .576a2.583 2.583 0 0 1 2.589 2.59 2.584 2.584 0 0 1-2.59 2.589 2.583 2.583 0 0 1-2.589-2.59 2.581 2.581 0 0 1 2.59-2.589"/>
        <path stroke-linecap="round" stroke-linejoin="round" d="M11.401.534H8.504l-.118.422-.53 1.897a7.48 7.48 0 0 0-1.578.668l-1.75-.972-.38-.211-.307.307L2.425 4.06l-.308.308.213.38.975 1.743a7.526 7.526 0 0 0-.655 1.571l-1.917.544-.419.118v2.88l.42.12 1.917.544c.157.55.376 1.082.65 1.579l-.96 1.752-.208.378.306.306 1.402 1.403.308.307.38-.211 1.737-.966a7.556 7.556 0 0 0 1.592.661l.543 1.914.119.418h2.866l.119-.418.543-1.914a7.581 7.581 0 0 0 1.592-.66l1.737.965.38.21.307-.306 1.403-1.403.305-.306-.208-.378-.96-1.752c.27-.489.49-1.022.65-1.579l1.918-.545.418-.119v-2.88l-.418-.118-1.917-.544a7.544 7.544 0 0 0-.655-1.572l.975-1.741.213-.38-.308-.31-1.416-1.415-.307-.307-.38.21-1.75.973a7.46 7.46 0 0 0-1.579-.668L11.52.956l-.118-.422zm-.437.576l.553 1.982a.44.44 0 0 0 .31.297 6.955 6.955 0 0 1 1.591.675.441.441 0 0 0 .418 0l1.82-1.012 1.417 1.416-1.011 1.807a.434.434 0 0 0 0 .432c.283.499.505 1.027.66 1.59.04.14.157.257.297.298l1.995.566v2.01l-1.995.566a.444.444 0 0 0-.297.296 7.016 7.016 0 0 1-.66 1.605.445.445 0 0 0 0 .418l.997 1.82-1.402 1.403-1.82-1.011a.436.436 0 0 0-.418.013 6.943 6.943 0 0 1-1.592.661.438.438 0 0 0-.31.296l-.566 1.996H8.955l-.567-1.996a.439.439 0 0 0-.31-.296 6.943 6.943 0 0 1-1.591-.66.436.436 0 0 0-.418-.014l-1.82 1.011-1.403-1.402.998-1.82a.445.445 0 0 0 0-.42 7.016 7.016 0 0 1-.66-1.604.446.446 0 0 0-.298-.296L.89 11.17V9.16l1.996-.565a.448.448 0 0 0 .297-.297 6.923 6.923 0 0 1 .66-1.591.434.434 0 0 0 0-.432l-1.01-1.807 1.415-1.416 1.82 1.012a.445.445 0 0 0 .419 0 6.955 6.955 0 0 1 1.591-.675.44.44 0 0 0 .31-.297l.553-1.982h2.023z"/>
    </g>
</svg>
