<svg xmlns="http://www.w3.org/2000/svg" width="24" height="24" viewBox="0 0 24 24">
    <g fill="none" fill-rule="evenodd">
        <path fill="#007DA4" fill-opacity=".6" fill-rule="nonzero" d="M12 24C5.373 24 0 18.627 0 12S5.373 0 12 0s12 5.373 12 12-5.373 12-12 12zm0-.49c6.357 0 11.51-5.153 11.51-11.51S18.357.49 12 .49.49 5.643.49 12 5.643 23.51 12 23.51z"/>
        <path fill="#FFF" fill-opacity=".6" d="M12 23.51c6.357 0 11.51-5.153 11.51-11.51S18.357.49 12 .49.49 5.643.49 12 5.643 23.51 12 23.51z"/>
        <path fill="#77BC1F" fill-rule="nonzero" d="M14.158 8.928c.018 0 .027-.008.027-.005v-1.8c0 .004-.313-.158-.938-.488a.121.121 0 0 0-.058-.005l-.755.392-.115-.06-.628-.327a.117.117 0 0 0-.059-.005l-.928.476c-.018.011-.02.013-.02.004v1.8c0-.003.01.005.029.005h1.239l.97.013h1.236zM12.969 6.18a.605.605 0 0 1 .5.006l.932.491a.495.495 0 0 1 .284.445v1.8a.517.517 0 0 1-.527.505H12.92l-.972-.013h-1.236a.517.517 0 0 1-.528-.505v-1.8c0-.18.101-.335.274-.44l.955-.49a.605.605 0 0 1 .497.006l.524.272.534-.277zm-.51-.586c.209 0 .414-.05.6-.148l.017-.007c.372-.201.59-.546.59-.929 0-.374-.223-.73-.576-.922l-.042-.02c-.357-.188-.823-.188-1.126-.037l-.066.05c-.372.201-.591.547-.591.93 0 .382.219.727.59.928l.032.023c.17.086.369.132.571.132zm-.842.285c-.528-.286-.852-.797-.852-1.369 0-.571.324-1.082.802-1.332l.068-.052a1.793 1.793 0 0 1 1.634-.006l.045.021c.524.284.853.807.853 1.37 0 .57-.324 1.082-.867 1.375l-.019.008a1.768 1.768 0 0 1-1.68-.026l.016.011z"/>
        <path fill="#00ADBB" fill-rule="nonzero" d="M18.995 17.75c.02 0 .028-.008.028-.005v-1.8c0 .005-.313-.158-.938-.488a.121.121 0 0 0-.058-.005l-.755.392-.115-.06-.628-.327a.117.117 0 0 0-.059-.005l-.928.477c-.018.01-.02.012-.02.003v1.8c0-.002.01.005.028.005h1.24l.97.013h1.235zm-1.188-2.747a.605.605 0 0 1 .5.006l.931.492a.495.495 0 0 1 .285.444v1.8a.517.517 0 0 1-.528.505H17.76l-.972-.013H15.55a.517.517 0 0 1-.527-.505v-1.8c0-.18.101-.335.274-.44l.954-.49a.605.605 0 0 1 .498.006l.524.272.534-.277zm-.51-.586c.209 0 .413-.05.6-.147l.017-.008c.372-.2.59-.546.59-.929 0-.374-.223-.73-.576-.922l-.042-.02c-.357-.188-.823-.188-1.127-.037l-.065.05c-.372.202-.591.547-.591.93 0 .382.219.727.59.928l.032.023c.17.086.369.132.571.132zm-.842.285c-.528-.286-.852-.797-.852-1.369 0-.571.324-1.082.802-1.332l.068-.052a1.793 1.793 0 0 1 1.634-.006l.045.022c.524.283.853.806.853 1.368 0 .572-.324 1.083-.867 1.376l-.019.009a1.768 1.768 0 0 1-1.68-.027l.016.011z"/>
        <path fill="#920A7A" fill-rule="nonzero" d="M8.45 17.75c.019 0 .027-.008.027-.005v-1.8c0 .005-.312-.158-.937-.488a.121.121 0 0 0-.058-.005l-.755.392-.115-.06-.628-.327a.117.117 0 0 0-.06-.005l-.928.477c-.018.01-.019.012-.019.003v1.8c0-.002.009.005.028.005h1.24l.97.013H8.45zm-1.188-2.747a.605.605 0 0 1 .499.006l.932.492a.495.495 0 0 1 .284.444v1.8a.517.517 0 0 1-.527.505H7.213l-.972-.013H5.005a.517.517 0 0 1-.528-.505v-1.8c0-.18.102-.335.275-.44l.954-.49a.605.605 0 0 1 .498.006l.523.272.535-.277zm-.511-.586c.21 0 .414-.05.601-.147l.017-.008c.371-.2.59-.546.59-.929 0-.374-.224-.73-.576-.922l-.043-.02c-.357-.188-.822-.188-1.126-.037l-.066.05c-.372.202-.59.547-.59.93 0 .382.218.727.59.928l.031.023c.171.086.37.132.572.132zm-.841.285c-.529-.286-.853-.797-.853-1.369 0-.571.324-1.082.802-1.332l.069-.052a1.793 1.793 0 0 1 1.634-.006l.045.022c.524.283.852.806.852 1.368 0 .572-.324 1.083-.867 1.376l-.018.009a1.768 1.768 0 0 1-1.68-.027l.016.011z"/>
        <path fill="#002C5C" fill-opacity=".6" fill-rule="nonzero" d="M12.307 13.805l-2.241 1.374-.26-.427 2.354-1.444v-2.864h.5v2.99l2.199 1.34-.26.428-2.292-1.397z"/>
    </g>
</svg>
