<svg xmlns="http://www.w3.org/2000/svg" xmlns:xlink="http://www.w3.org/1999/xlink" width="215" height="21" viewBox="0 0 215 21">
    <defs>
        <path id="a" d="M6.767 3.441v-.017C6.767 1.701 8.028.19 9.887.19c1.858 0 3.104 1.494 3.104 3.22v.015c0 1.726-1.263 3.235-3.122 3.235-1.857 0-3.102-1.49-3.102-3.218zm5.509 0v-.017c0-1.42-1.01-2.582-2.407-2.582-1.394 0-2.388 1.144-2.388 2.566v.016c0 1.422 1.011 2.586 2.406 2.586 1.394 0 2.389-1.146 2.389-2.569zm11.315 3.11V.294h.646l3.843 5.015V.293h.673v6.259h-.55l-3.94-5.131v5.13h-.672zm11.843 0V.294h4.389V.95h-3.699v2.235h3.305v.644h-3.305v2.724h-.69zm6.838 0V.294h4.415v.644h-3.728v2.137h3.333v.645H42.96v2.19h3.77v.643h-4.457zm24.38 0V4.075L64.117.294h.838l2.059 3.13 2.073-3.13h.802l-2.536 3.772v2.486h-.7zm-12.91 0l-1.768-2.425h-1.747v2.426h-.689V.293h2.624c.751 0 1.352.235 1.736.626.295.304.47.742.47 1.237v.016c0 1.033-.694 1.64-1.646 1.82v.017l1.864 2.543h-.845zM50.226.95v2.533h2.003c.847-.045 1.442-.517 1.442-1.284v-.017c0-.77-.577-1.232-1.562-1.232h-1.883zM61.56 6.552l-1.768-2.426h-1.747v2.426h-.69V.293h2.625c.75 0 1.35.235 1.735.626.296.304.47.742.47 1.237v.016c0 1.033-.691 1.64-1.645 1.82v.017l1.864 2.543h-.844zM58.045.949v2.533h2.002c.848-.045 1.44-.517 1.44-1.284v-.017c0-.77-.574-1.232-1.56-1.232h-1.882zM19.978 6.552l-1.767-2.426h-1.747v2.426h-.69V.295H18.4c.75 0 1.352.234 1.736.625.296.304.47.742.47 1.237v.017c0 1.032-.692 1.639-1.646 1.818v.018l1.865 2.542h-.846zM16.464.95v2.533h2.005c.847-.046 1.439-.517 1.439-1.284v-.017c0-.77-.575-1.232-1.56-1.232h-1.884zM.04 6.552V.295h.69v6.257H.04zM2.51 3.03l2.728 3.522h-.864l-2.716-3.51L4.235.294h.888L2.509 3.03z"/>
        <path id="c" d="M11.145 18.546v.257H6.33l-6.298-8.78 7.07-7.925h2.06v.257H7.224L2.196 7.99l7.57 10.556h1.379zM14.72 2.098h8.162v5.371h-.194c-.724-3.143-2.439-5.114-5.892-5.114h-2.076v-.257zm0 8.092c2.8 0 3.838-1.125 4.055-3.424h.194v7.179h-.194c-.095-1.15-.433-3.495-4.055-3.495v-.26zm-2.253 10.546V.165h.264v20.57h-.264z"/>
        <path id="e" d="M.857.745c.082 0 .145-.046.145-.132V.61C1.002.534.95.486.865.486H.687v.259h.17zM.623.409h.244c.067 0 .125.026.16.069.024.03.041.075.041.128v.003c0 .111-.06.177-.149.197l.182.29h-.083L.845.819H.687v.277H.623V.409zm.702.362V.767c0-.344-.212-.623-.494-.623-.283 0-.496.283-.496.627v.004c0 .343.212.623.494.623.283 0 .496-.283.496-.627zM.29.775V.77C.29.4.53.09.831.09c.304 0 .539.306.539.676v.004c0 .37-.238.68-.541.68C.526 1.45.29 1.144.29.774z"/>
        <path id="g" d="M.073 6.588V.248h2.36c1.424 0 2.36.76 2.36 2.01v.018c0 1.368-1.135 2.075-2.477 2.075H.785v2.237H.073zm.712-2.89h1.558c1.045 0 1.73-.561 1.73-1.395v-.018c0-.906-.676-1.377-1.694-1.377H.785v2.79zm6.944 2.89V.248h2.711c.775 0 1.397.235 1.793.633.306.308.486.752.486 1.25v.018c0 1.051-.72 1.667-1.711 1.848l1.937 2.591h-.874l-1.829-2.464H8.44v2.464H7.73zm.711-3.107h1.937c.946 0 1.622-.49 1.622-1.304v-.019c0-.779-.595-1.25-1.613-1.25H8.44v2.573zm10.368 3.216c-1.92 0-3.208-1.513-3.208-3.261v-.018c0-1.749 1.307-3.28 3.226-3.28 1.918 0 3.207 1.513 3.207 3.262v.018c0 1.748-1.307 3.279-3.225 3.279zm.018-.661c1.44 0 2.468-1.16 2.468-2.6v-.018c0-1.44-1.045-2.618-2.486-2.618-1.442 0-2.469 1.16-2.469 2.6v.018c0 1.44 1.045 2.618 2.487 2.618zm6.349.552V.248h2.19c1.981 0 3.35 1.367 3.35 3.152v.018c0 1.784-1.369 3.17-3.35 3.17h-2.19zm2.19-5.68h-1.478v5.019h1.477c1.595 0 2.613-1.087 2.613-2.491v-.018c0-1.404-1.018-2.51-2.613-2.51zm9.015 5.78c-1.558 0-2.621-.96-2.621-2.754V.247h.711V3.89c0 1.368.73 2.138 1.928 2.138 1.162 0 1.9-.707 1.9-2.093V.247h.713V3.88c0 1.848-1.054 2.808-2.63 2.808zm8.836.009c-1.82 0-3.162-1.44-3.162-3.261v-.018c0-1.794 1.333-3.28 3.189-3.28 1.144 0 1.829.408 2.46 1.006l-.487.525C46.684 1.162 46.09.8 45.234.8c-1.396 0-2.441 1.142-2.441 2.6v.019c0 1.467 1.054 2.618 2.44 2.618.866 0 1.433-.336 2.037-.915l.468.462c-.657.67-1.378 1.114-2.522 1.114zm7.07-.109V.908h-2.117v-.66h4.955v.66h-2.117v5.68h-.721zm12.312.09c-1 0-1.82-.334-2.577-1.014l.441-.525c.658.598 1.289.897 2.163.897.846 0 1.405-.453 1.405-1.078V4.94c0-.59-.315-.924-1.64-1.205-1.45-.317-2.117-.788-2.117-1.83v-.018c0-.997.874-1.73 2.072-1.73.92 0 1.577.262 2.216.779l-.414.552c-.586-.48-1.171-.688-1.82-.688-.82 0-1.342.453-1.342 1.023v.018c0 .598.324.933 1.712 1.232 1.405.308 2.054.825 2.054 1.794v.018c0 1.087-.901 1.794-2.153 1.794zm7.763.01c-1.558 0-2.621-.96-2.621-2.754V.247h.712V3.89c0 1.368.73 2.138 1.927 2.138 1.162 0 1.901-.707 1.901-2.093V.247h.712V3.88c0 1.848-1.054 2.808-2.63 2.808zm6.016-.1V.248h.712v6.34h-.712zm5.863 0V.908h-2.117v-.66h4.955v.66h-2.117v5.68h-.72zm5.81 0V.248h4.558v.651H90.76v2.165h3.441v.653h-3.441v2.219h3.892v.652h-4.604z"/>
    </defs>
    <g fill="none" fill-rule="evenodd">
        <g transform="translate(30 7)">
            <mask id="b" fill="#fff">
                <use xlink:href="#a"/>
            </mask>
            <path fill="#323232" d="M.008 6.679h69.92V.156H.007z" mask="url(#b)"/>
        </g>
        <g>
            <mask id="d" fill="#fff">
                <use xlink:href="#c"/>
            </mask>
            <path fill="#323232" d="M.025 20.738h22.868V.151H.025z" mask="url(#d)"/>
        </g>
        <g transform="translate(100 7)">
            <mask id="f" fill="#fff">
                <use xlink:href="#e"/>
            </mask>
            <path fill="#323232" d="M.282 1.492h1.116V.052H.282z" mask="url(#f)"/>
        </g>
        <path fill="#919191" d="M110 8h1V7h-1zM110 12h1v-1h-1z"/>
        <g transform="translate(120 7)">
            <mask id="h" fill="#fff">
                <use xlink:href="#g"/>
            </mask>
            <path fill="#323232" d="M.057 6.728h94.64V.108H.057z" mask="url(#h)"/>
        </g>
    </g>
</svg>
