<?xml version="1.0" encoding="UTF-8" standalone="no"?>
<svg width="20px" height="24px" viewBox="0 0 20 24" version="1.1" xmlns="http://www.w3.org/2000/svg" xmlns:xlink="http://www.w3.org/1999/xlink">
    <!-- Generator: sketchtool 45.2 (43514) - http://www.bohemiancoding.com/sketch -->
    <title>89452B9C-B77E-4FC7-AFB0-020C5DD8E831</title>
    <desc>Created with sketchtool.</desc>
    <defs></defs>
    <g id="Symbols" stroke="none" stroke-width="1" fill="none" fill-rule="evenodd">
        <g id="icon-/-responsibilities" transform="translate(-5.000000, -3.000000)" fill="#6F7173">
            <g id="responsibilities-icon" transform="translate(5.000000, 3.000000)">
                <path d="M14.7720817,13.0283657 C11.9006928,13.0283657 9.56463592,15.4093009 9.56463592,18.3379183 C9.56463592,21.2656091 11.8997839,23.6474702 14.7720817,23.6474702 C17.6434707,23.6474702 19.9795276,21.2665358 19.9795276,18.3379183 C19.9795276,15.4093009 17.6443796,13.0283657 14.7720817,13.0283657 Z M14.7720817,22.6818445 C12.4235278,22.6818445 10.5116921,20.7324992 10.5116921,18.3379183 C10.5116921,15.9433143 12.4235505,13.9939917 14.7720817,13.9939917 C17.1215446,13.9939917 19.0324714,15.9433375 19.0324714,18.3379183 C19.0324714,20.7325224 17.1214992,22.6818445 14.7720817,22.6818445 Z" id="Fill-1"></path>
                <path d="M17.2768954,16.0663343 L13.8251846,19.5857258 L12.2665864,17.9965668 C12.0819695,17.80833 11.7819699,17.80833 11.597353,17.9965668 C11.4127361,18.1848036 11.4127361,18.4906856 11.597353,18.6789224 L13.4905565,20.6092475 C13.5837534,20.7024601 13.7044645,20.7504263 13.8260707,20.7504263 C13.947677,20.7504263 14.068379,20.7033683 14.1589037,20.6092475 L17.9462197,16.7476705 C18.1308366,16.5603395 18.1308366,16.2544553 17.9462197,16.0662185 C17.7615119,15.8780975 17.4615123,15.8780975 17.2768954,16.0663343 Z" id="Fill-2"></path>
                <path d="M10.481699,22.6447764 L1.4878461,22.6447764 C1.22690576,22.6447764 1.01477244,22.4284859 1.01477244,22.1624267 L1.01477244,3.82109463 C1.01477244,3.55503781 1.22690349,3.33874501 1.4878461,3.33874501 L3.85503218,3.33874501 L3.85503218,3.82109463 C3.85503218,4.08715145 4.06716323,4.30344425 4.32810584,4.30344425 L12.8488851,4.30344425 C13.1098254,4.30344425 13.3219587,4.08715377 13.3219587,3.82109463 L13.3219587,3.33874501 L15.6891448,3.33874501 C15.9500851,3.33874501 16.1622185,3.55503549 16.1622185,3.82109463 L16.1622185,11.543322 C16.1622185,11.8093788 16.3743495,12.0256716 16.6352921,12.0256716 C16.8962325,12.0256716 17.1083658,11.8093812 17.1083658,11.543322 L17.1083658,3.82109463 C17.1083658,3.022901 16.4710797,2.37311908 15.6882359,2.37311908 L13.2340243,2.37311908 C13.0378691,1.81202276 12.5177562,1.40749314 11.9008745,1.40749314 L10.2224628,1.40749314 C9.88783476,0.818340845 9.2683173,0.441867201 8.58842729,0.441867201 C7.90853727,0.441867201 7.28811094,0.818340845 6.95439178,1.40749314 L5.27509389,1.40749314 C4.65912108,1.40749314 4.13810383,1.81202276 3.94194413,2.37311908 L1.48773249,2.37311908 C0.704888516,2.37311908 0.0676023961,3.022901 0.0676023961,3.82109463 L0.0676023961,22.1624267 C0.0676023961,22.9606204 0.704888516,23.6104023 1.48773249,23.6104023 L10.4815854,23.6104023 C10.7425257,23.6104023 10.954659,23.3941118 10.954659,23.1280527 C10.9555475,22.8610923 10.7434142,22.6447995 10.4815854,22.6447995 L10.481699,22.6447764 Z M5.27516205,2.37311908 L7.2553457,2.37311908 C7.45505231,2.37311908 7.63434996,2.24370713 7.70090292,2.05185384 C7.83492683,1.66632166 8.19263141,1.40841984 8.58758657,1.40841984 C8.98345061,1.40841984 9.3402554,1.66724837 9.47427022,2.05185384 C9.54172752,2.2446153 9.7201231,2.37311908 9.91982744,2.37311908 L11.9000111,2.37311908 C12.1609514,2.37311908 12.3730848,2.58940956 12.3730848,2.85546869 L12.3730848,3.33781831 L4.79936174,3.33781831 L4.79936174,2.85546869 C4.80113633,2.58941187 5.01326965,2.37311908 5.27511661,2.37311908 L5.27516205,2.37311908 Z" id="Fill-3"></path>
            </g>
        </g>
    </g>
</svg>