<?xml version="1.0" encoding="UTF-8" standalone="no"?>
<svg width="20px" height="30px" viewBox="0 0 20 30" version="1.1" xmlns="http://www.w3.org/2000/svg" xmlns:xlink="http://www.w3.org/1999/xlink">
    <!-- Generator: sketchtool 45.2 (43514) - http://www.bohemiancoding.com/sketch -->
    <title>19DCDAF3-40EE-44BC-A8D1-ADB71358AAD4</title>
    <desc>Created with sketchtool.</desc>
    <defs></defs>
    <g id="Symbols" stroke="none" stroke-width="1" fill="none" fill-rule="evenodd" stroke-linecap="round" stroke-linejoin="round">
        <g id="icon-/-technical" transform="translate(-5.000000, 1.000000)" stroke="#6F7173" stroke-width="0.7425">
            <g id="technical-icon" transform="translate(5.000000, 0.000000)">
                <path d="M17.6776983,12.771594 C17.6776983,8.64414257 14.2824287,5.29737686 10.0942983,5.29737686 C5.9070287,5.29737686 2.51175913,8.64414257 2.51175913,12.771594 C2.51175913,13.8161854 2.72955913,14.8107111 3.12297652,15.7135911 L3.10920261,15.7135911 C3.10920261,15.7135911 4.75432435,19.7672169 5.47745478,21.4635111 C5.94490696,22.560714 6.21177652,23.612094 6.36070696,24.3885369 L13.7925939,24.408054 C13.9260287,23.6341569 14.1765417,22.5751397 14.6465765,21.4363569 C15.2750113,19.9148683 17.0802548,15.7135911 17.0802548,15.7135911 L17.0664809,15.7135911 C17.4598983,14.8107111 17.6776983,13.8161854 17.6776983,12.771594 Z" id="Stroke-1"></path>
                <path d="M7.38376435,8.59959257 C7.38376435,8.59959257 5.26172087,9.62890971 5.26172087,12.4130726" id="Stroke-3"></path>
                <path d="M10.1202104,2.95379229 L10.1202104,0.318129429" id="Stroke-5"></path>
                <path d="M2.72594348,6.71440629 L1.64985652,5.653692" id="Stroke-7"></path>
                <path d="M18.2653278,5.65326771 L17.18838,6.713982" id="Stroke-9"></path>
                <path d="M14.061013,4.04310343 L15.1827261,2.26704343" id="Stroke-11"></path>
                <path d="M6.00551217,4.04310343 L4.88379913,2.26704343" id="Stroke-13"></path>
                <path d="M1.14883043,9.93626229 L0.323256522,9.67575086" id="Stroke-15"></path>
                <path d="M19.0404548,9.93626229 L19.8668896,9.67575086" id="Stroke-17"></path>
                <path d="M7.03321826,26.4345274 L13.1565835,26.4345274" id="Stroke-19"></path>
                <path d="M7.48379739,28.3744466 L12.7058322,28.3744466" id="Stroke-21"></path>
            </g>
        </g>
    </g>
</svg>