<svg xmlns="http://www.w3.org/2000/svg" xmlns:xlink="http://www.w3.org/1999/xlink" width="100" height="100" viewBox="0 0 100 100">
    <defs>
        <ellipse id="b" cx="34.477" cy="34.706" rx="33.911" ry="34.042"/>
        <filter id="a" width="173.7%" height="173.4%" x="-36.9%" y="-33.8%" filterUnits="objectBoundingBox">
            <feOffset dy="2" in="SourceAlpha" result="shadowOffsetOuter1"/>
            <feGaussianBlur in="shadowOffsetOuter1" result="shadowBlurOuter1" stdDeviation="8"/>
            <feColorMatrix in="shadowBlurOuter1" values="0 0 0 0 0 0 0 0 0 0 0 0 0 0 0 0 0 0 0.336730072 0"/>
        </filter>
        <ellipse id="d" cx="34.385" cy="34.257" rx="33.911" ry="34.042"/>
        <filter id="c" width="175.2%" height="174.9%" x="-37.6%" y="-34.5%" filterUnits="objectBoundingBox">
            <feMorphology in="SourceAlpha" operator="dilate" radius=".5" result="shadowSpreadOuter1"/>
            <feOffset dy="2" in="shadowSpreadOuter1" result="shadowOffsetOuter1"/>
            <feMorphology in="SourceAlpha" radius="1" result="shadowInner"/>
            <feOffset dy="2" in="shadowInner" result="shadowInner"/>
            <feComposite in="shadowOffsetOuter1" in2="shadowInner" operator="out" result="shadowOffsetOuter1"/>
            <feGaussianBlur in="shadowOffsetOuter1" result="shadowBlurOuter1" stdDeviation="8"/>
            <feColorMatrix in="shadowBlurOuter1" values="0 0 0 0 0 0 0 0 0 0 0 0 0 0 0 0 0 0 0.336730072 0"/>
        </filter>
    </defs>
    <g fill="none" fill-rule="evenodd">
        <g opacity=".531" transform="translate(15.644 13.48)">
            <use fill="#000" filter="url(#a)" xlink:href="#b"/>
            <use fill="#FFF" xlink:href="#b"/>
        </g>
        <g opacity=".719" transform="translate(15.844 13.872)">
            <use fill="#000" filter="url(#c)" xlink:href="#d"/>
            <use stroke="#FFF" xlink:href="#d"/>
        </g>
        <g stroke="#FFF" stroke-width=".55" opacity=".662">
            <path d="M38.033 17.889l9.328 14.359 14.926-14.36zM63.082 17.577L62.287 41.3M62.909 40.364l8.706-6.868 3.11 11.862zM71.615 33.496L62.91 17.89M82.188 39.115l-10.573-5.619 6.22-3.745" opacity=".214"/>
            <path d="M82.188 39.115l-7.463 6.243 2.487 23.099L59.8 54.722M38.654 40.364l-18.377-7.18L32.435 31l6.22 9.365zm0 0L28.082 52.225l10.572-11.861zM60.421 54.722l14.304-9.988M47.361 32.248l-14.926-1.249 5.598-13.11M28.176 52.225L25.284 64.4M38.033 60.341l3.731 21.226-16.17-17.48" opacity=".214"/>
            <path d="M19.997 33.496l8.085 18.73-11.194.623 8.707 11.238 1.243 8.74M25.595 64.087l12.438-3.746M58.555 71.578l-16.17 9.99M58.555 71.578l-10.572-4.994M77.212 68.457l-18.657 3.121 1.244-8.115" opacity=".214"/>
        </g>
    </g>
</svg>
