<?xml version="1.0" encoding="UTF-8"?>
<svg width="16px" height="16px" viewBox="0 0 16 16" version="1.1" xmlns="http://www.w3.org/2000/svg" xmlns:xlink="http://www.w3.org/1999/xlink">
    <!-- Generator: Sketch 47.1 (45422) - http://www.bohemiancoding.com/sketch -->
    <title>noun_1372331_cc</title>
    <desc>Created with Sketch.</desc>
    <defs></defs>
    <g id="SP-Slider-Concept" stroke="none" stroke-width="1" fill="none" fill-rule="evenodd">
        <g id="Success-Profile_PM" transform="translate(-225.000000, -245.000000)" fill-rule="nonzero" fill="#FFFFFF">
            <g id="Header-Info" transform="translate(224.000000, 202.000000)">
                <g id="noun_1372331_cc" transform="translate(1.000000, 43.000000)">
                    <path d="M15.7616741,2.83901143 C15.5524871,2.57307795 15.2329816,2.41770434 14.8946738,2.41739429 L12.3967557,2.41739429 L12.3967557,0.368224569 C12.3967557,0.164859755 12.231928,0 12.0286027,0 L3.96973368,0 C3.76640839,0 3.60158068,0.164859755 3.60158068,0.368224569 L3.60158068,2.41739429 L1.10366262,2.41739429 C0.765538769,2.4176412 0.446157174,2.57278729 0.236908366,2.83843775 C0.0276595573,3.10408822 -0.0483990288,3.45097065 0.0304966485,3.7798252 L0.429942646,5.43683576 C0.807356233,7.02449261 2.16791648,8.18580915 3.79486101,8.30898739 C4.32450311,10.006356 5.85554744,11.1938074 7.6310152,11.2842419 L7.6310152,14.3607582 L5.37423735,14.3607582 C5.17091206,14.3607582 5.00608435,14.5256179 5.00608435,14.7289828 C5.00608435,14.9323476 5.17091206,15.0972073 5.37423735,15.0972073 L10.624099,15.0972073 C10.8274243,15.0972073 10.992252,14.9323476 10.992252,14.7289828 C10.992252,14.5256179 10.8274243,14.3607582 10.624099,14.3607582 L8.36732118,14.3607582 L8.36732118,11.2842419 C10.14034,11.1951611 11.6706711,10.0119352 12.2034754,8.31819301 C13.8304199,8.19501477 15.1909801,7.03369823 15.5683937,5.44604137 L15.9678397,3.78903081 C16.0496119,3.45750755 15.973503,3.10679494 15.7616741,2.83901143 Z M1.14600022,5.27481695 L0.746554221,3.61780639 C0.72006077,3.50820517 0.745235352,3.39250456 0.814870928,3.30382759 C0.884506505,3.21515062 0.990925716,3.16327399 1.10366262,3.16304905 L3.60158068,3.16304905 L3.60158068,7.05150049 C3.60230171,7.21767043 3.61275059,7.38365557 3.63287369,7.54860366 C2.41834982,7.36785352 1.43473024,6.46851499 1.14600022,5.27481695 L1.14600022,5.27481695 Z M11.6604497,7.05150049 C11.6604497,8.98346622 10.0945865,10.5496339 8.16299627,10.5496339 L7.83718087,10.5496339 C5.90559068,10.5496339 4.33972744,8.98346622 4.33972744,7.05150049 L4.33972744,0.736449138 L11.6604497,0.736449138 L11.6604497,7.05150049 Z M15.2536229,3.60860077 L14.8541769,5.26561133 C14.5684455,6.4634556 13.5832572,7.36720637 12.3654627,7.54860366 C12.385952,7.38060675 12.3964016,7.21153676 12.3967557,7.04229488 L12.3967557,3.15384343 L14.8946738,3.15384343 C15.0074107,3.15406837 15.1138299,3.20594501 15.1834654,3.29462197 C15.253101,3.38329894 15.2782756,3.49899955 15.2517822,3.60860077 L15.2536229,3.60860077 Z" id="Shape"></path>
                </g>
            </g>
        </g>
    </g>
</svg>