<svg xmlns="http://www.w3.org/2000/svg" width="17" height="20" viewBox="0 0 17 20">
    <path fill="#575859" fill-rule="evenodd" d="M8.915 10.325c2.588-.238 4.612-2.41 4.612-5.028A5.054 5.054 0 0 0 8.467.238 5.055 5.055 0 0 0 3.41 5.297c0 2.648 2.024 4.79 4.612 5.028-4.284.239-7.587 3.809-7.587 8.303 0 .327.268.595.595.595a.597.597 0 0 0 .596-.595c0-4.077 2.945-7.142 6.843-7.142s6.844 3.065 6.844 7.142c0 .327.267.595.595.595a.597.597 0 0 0 .595-.595c0-4.494-3.303-8.064-7.587-8.303M4.6 5.297a3.86 3.86 0 0 1 3.868-3.87 3.861 3.861 0 0 1 3.868 3.87 3.861 3.861 0 0 1-3.868 3.868C6.325 9.165 4.6 7.41 4.6 5.297"/>
</svg>
