<?xml version="1.0" encoding="UTF-8"?>
<svg width="16px" height="16px" viewBox="0 0 16 16" version="1.1" xmlns="http://www.w3.org/2000/svg" xmlns:xlink="http://www.w3.org/1999/xlink">
    <!-- Generator: Sketch 47.1 (45422) - http://www.bohemiancoding.com/sketch -->
    <title>Custom Icon</title>
    <desc>Created with Sketch.</desc>
    <defs></defs>
    <g id="SP-Slider-Concept" stroke="none" stroke-width="1" fill="none" fill-rule="evenodd">
        <g id="Success-Profile_PM" transform="translate(-226.000000, -245.000000)" fill-rule="nonzero" fill="#FFFFFF">
            <g id="Header-Info" transform="translate(224.000000, 202.000000)">
                <g id="Custom-Icon" transform="translate(2.000000, 43.000000)">
                    <path d="M15.9667925,8.71095059 C15.9879245,8.47648305 16,8.24000291 16,7.99949757 C15.9990718,5.42624306 14.7593424,3.0108088 12.6691824,1.50987872 C12.6389401,1.48228156 12.6050873,1.4589229 12.5685535,1.44044413 C10.2558348,-0.177841722 7.25983612,-0.452643287 4.69132075,0.717921823 C4.66444196,0.727197665 4.63849879,0.738990122 4.61383648,0.753142269 C2.04154479,1.95780575 0.298944653,4.43391303 0.0332075472,7.26188079 C0.0332075472,7.27093748 0.0332075472,7.27999416 0.0332075472,7.28905085 C0.0120754717,7.5235184 0,7.76100483 0,8.00050387 C0.000928222073,10.5737584 1.24065757,12.9891926 3.33081761,14.4901227 C3.36107531,14.5177004 3.39492536,14.5410572 3.43144654,14.5595573 C5.74061081,16.1753547 8.73126369,16.4519649 11.2976101,15.2871111 C11.3328736,15.2761754 11.3666675,15.260968 11.398239,15.2418277 C13.9641083,14.0349767 15.7013753,11.5622187 15.9667925,8.73912695 C15.9657862,8.72906397 15.9667925,8.72000728 15.9667925,8.71095059 Z M15.0943396,7.99949757 C15.0943396,8.14037936 15.0893082,8.28025485 15.0812579,8.42013033 L12.8110692,9.72831835 L12.8110692,2.78485889 C14.2686893,4.12671921 15.096918,6.01826622 15.0943396,7.99949757 L15.0943396,7.99949757 Z M4.09559748,10.2536062 L4.09559748,5.74538899 L8,3.49128041 L11.9044025,5.74538899 L11.9044025,10.2536062 L8,12.5077147 L4.09559748,10.2536062 Z M11.9044025,2.08044996 L11.9044025,4.69682598 L5.88679245,1.22610255 C7.9185408,0.59302057 10.1272461,0.906705394 11.9023899,2.08044996 L11.9044025,2.08044996 Z M4.82515723,1.65981719 L7.09433962,2.96800521 L1.08075472,6.43973494 C1.55270402,4.36731788 2.92602048,2.61421049 4.82515723,1.65981719 Z M0.900628931,7.99949757 C0.900628931,7.85861579 0.905660377,7.7187403 0.913710692,7.57886481 L3.18389937,6.2706768 L3.18389937,13.2141363 C1.72813892,11.8713888 0.901787148,9.97996037 0.905660377,7.99949757 L0.900628931,7.99949757 Z M4.09056604,13.9185452 L4.09056604,11.3021692 L7.77157233,13.4274715 L7.77157233,13.4274715 L10.1132075,14.7728926 C8.0814592,15.4059746 5.8727539,15.0922898 4.09761006,13.9185452 L4.09056604,13.9185452 Z M11.1698113,14.3411905 L8.90566038,13.0309899 L14.9192453,9.55926021 C14.447296,11.6316773 13.0739795,13.3847847 11.1748428,14.339178 L11.1698113,14.3411905 Z" id="Shape"></path>
                </g>
            </g>
        </g>
    </g>
</svg>