<svg xmlns="http://www.w3.org/2000/svg" width="18" height="19" viewBox="0 0 18 19">
    <g fill="#000" fill-rule="evenodd">
        <path d="M17.175 10.706l-1.813.617a.337.337 0 0 0-.204.199l-.44 1.159a.365.365 0 0 0 .011.292l.879 1.796-1.62 1.71-1.7-.927a.314.314 0 0 0-.292-.028l-1.098.478a.342.342 0 0 0-.187.215l-.581 1.924H7.85L7.27 16.22a.342.342 0 0 0-.187-.216l-1.098-.477a.316.316 0 0 0-.276.011l-1.702.927-1.611-1.706.878-1.798a.365.365 0 0 0 .013-.29l-.452-1.158a.337.337 0 0 0-.204-.198l-1.823-.614V8.294l1.82-.617a.336.336 0 0 0 .204-.197l.453-1.159a.366.366 0 0 0-.011-.292l-.878-1.798 1.62-1.71 1.701.927c.087.046.188.05.277.011l1.098-.477a.341.341 0 0 0 .187-.216L7.859.84h2.28l.58 1.938c.028.097.097.176.186.215l1.098.478c.089.039.19.035.276-.012l1.702-.927 1.203 1.27.42.443-.879 1.798a.365.365 0 0 0-.022.285l.44 1.159a.337.337 0 0 0 .203.2l1.838.607-.009 2.412zm.59-3.03l-1.94-.653-.34-.868.931-1.913a.369.369 0 0 0-.049-.403l-.599-.632-1.412-1.49a.322.322 0 0 0-.39-.064l-1.81.986-.816-.354-.619-2.05A.337.337 0 0 0 10.402 0H7.587a.336.336 0 0 0-.32.236l-.62 2.05-.82.358-1.812-.986a.322.322 0 0 0-.382.059L1.622 3.839a.368.368 0 0 0-.06.413l.931 1.912-.33.859-1.94.655A.353.353 0 0 0 0 8.015v2.972a.353.353 0 0 0 .223.337l1.94.656.34.868-.932 1.91a.369.369 0 0 0 .051.4l2.01 2.123a.322.322 0 0 0 .392.064l1.812-.986.82.358.62 2.047a.336.336 0 0 0 .32.236h2.806a.337.337 0 0 0 .32-.236l.618-2.05.822-.358 1.81.986a.321.321 0 0 0 .384-.061l2.011-2.123a.368.368 0 0 0 .06-.412l-.931-1.913.34-.868 1.94-.655a.353.353 0 0 0 .224-.337v-2.96a.352.352 0 0 0-.234-.337z"/>
        <path d="M8.998 13.265a4.265 4.265 0 1 1 4.267-4.263v.005a4.272 4.272 0 0 1-4.267 4.26v-.002zm0-9.265A5 5 0 1 0 14 9.007 5.007 5.007 0 0 0 8.998 4z"/>
    </g>
</svg>
