<svg xmlns="http://www.w3.org/2000/svg" xmlns:xlink="http://www.w3.org/1999/xlink" width="68" height="68" viewBox="0 0 68 68">
    <defs>
        <path id="a" d="M67.44 34.233v33.722H0V.512h67.44z"/>
    </defs>
    <g fill="none" fill-rule="evenodd">
        <path fill="#578E3F" d="M58.638 53.415c.04.165.072.342.072.513 0 .176-.027.342-.072.513h1.617c.407.006.772-.242.772-.513 0-.27-.365-.516-.772-.513h-1.617zM7.624 53.415c-.403.037-.707.307-.652.578.057.269.467.486.87.448H49.54a2.014 2.014 0 0 1-.072-.513c0-.171.032-.348.072-.513H7.624zM54.1 50.066a3.866 3.866 0 0 0-3.86 3.86 3.866 3.866 0 0 0 3.86 3.862c2.118 0 3.84-1.733 3.84-3.861 0-2.13-1.722-3.861-3.84-3.861m0 1.544c1.288 0 2.295 1.03 2.295 2.317 0 1.287-1.007 2.317-2.294 2.317a2.307 2.307 0 0 1-2.317-2.317 2.307 2.307 0 0 1 2.317-2.317M26.278 42.344c.04.249.072.514.072.772 0 .266-.028.515-.072.772h33.977c.407.008.772-.365.772-.772 0-.408-.365-.776-.772-.772H26.278zM7.624 42.344a.79.79 0 0 0-.652.869c.057.405.467.732.87.675h9.314a4.48 4.48 0 0 1-.072-.772c0-.258.032-.523.072-.772H7.624zM21.717 39.255a3.865 3.865 0 0 0-3.861 3.86 3.866 3.866 0 0 0 3.86 3.862 3.866 3.866 0 0 0 3.862-3.861 3.866 3.866 0 0 0-3.861-3.861m0 1.544a2.307 2.307 0 0 1 2.317 2.317 2.307 2.307 0 0 1-2.317 2.317 2.307 2.307 0 0 1-2.317-2.317 2.307 2.307 0 0 1 2.317-2.317M38.61 31.793c.04.165.071.342.071.513 0 .176-.028.342-.072.513h21.646c.407.006.772-.242.772-.513 0-.27-.365-.516-.772-.513H38.609zM7.624 31.793c-.403.037-.707.307-.652.578.057.269.467.486.87.448h21.645a1.993 1.993 0 0 1-.048-.513c0-.171.008-.348.048-.513H7.624zM34.048 28.444a3.866 3.866 0 0 0-3.86 3.86 3.866 3.866 0 0 0 3.86 3.862 3.866 3.866 0 0 0 3.861-3.861 3.866 3.866 0 0 0-3.86-3.861m0 1.544a2.307 2.307 0 0 1 2.316 2.317 2.307 2.307 0 0 1-2.317 2.317 2.307 2.307 0 0 1-2.316-2.317 2.307 2.307 0 0 1 2.316-2.317M60.513 10.425H7.584v6.692l1.03.001c5.17.003 10.588.003 16.17.003h16.923l17.776-.003h1.03V10.425zm-1.03 1.03v4.633c-11.727 0-23.535.003-34.698.003-5.582 0-11.002 0-16.171-.003v-4.633h50.869z"/>
        <g transform="translate(.28 -.384)">
            <mask id="b" fill="#fff">
                <use xlink:href="#a"/>
            </mask>
            <path fill="#578E3F" d="M1.03 66.356c.125.422.348.493 1.084.57l63.267-.001c.561 0 .785-.138 1.03-.62V2.086c-.12-.408-.316-.467-1.059-.542H2.05c-.619-.001-.801.165-1.02.594v64.218zm64.415 1.6c-.026 0-.05 0-.076-.002H2.06c-.76-.077-1.73-.18-2.043-1.4L0 66.425V1.9l.05-.105C.427 1.012.907.472 2.064.515h63.317c.814.078 1.736.171 2.043 1.376l.016.127v64.526l-.05.105c-.305.633-.732 1.306-1.945 1.306z" mask="url(#b)"/>
        </g>
        <path fill="#578E3F" d="M9.726 12.564h50.87v4.633c-17.592 0-35.36.01-50.87 0v-4.633zM35.158 31.097a2.307 2.307 0 0 1 2.317 2.317 2.307 2.307 0 0 1-2.317 2.317 2.307 2.307 0 0 1-2.316-2.317 2.307 2.307 0 0 1 2.316-2.317M55.21 52.722c1.288 0 2.294 1.03 2.294 2.317 0 1.287-1.006 2.317-2.293 2.317a2.307 2.307 0 0 1-2.317-2.317 2.307 2.307 0 0 1 2.317-2.317M22.83 41.913a2.307 2.307 0 0 1 2.317 2.317 2.307 2.307 0 0 1-2.317 2.317 2.307 2.307 0 0 1-2.317-2.317 2.307 2.307 0 0 1 2.317-2.317" opacity=".18"/>
    </g>
</svg>
