<svg xmlns="http://www.w3.org/2000/svg" width="80" height="45" viewBox="0 0 80 45">
    <g fill="none" fill-rule="evenodd">
        <path fill="#BFE2E4" d="M39.628 38.049c0-.534.144-1.067.43-1.58.072-.126.122-.257.155-.396l2.688-11.45 2.664 11.392c.033.147.088.287.165.416.296.52.453 1.066.453 1.618a3.281 3.281 0 0 1-3.277 3.276 3.281 3.281 0 0 1-3.278-3.276M41.49 10.327c-.847 0-1.533.69-1.533 1.534v1.025c0 .848.69 1.534 1.534 1.534.85 0 1.539-.69 1.539-1.534V11.86c0-.845-.69-1.534-1.54-1.534"/>
        <path fill="#008A95" d="M40.252 25.862l-1.825 7.772a2.363 2.363 0 0 1-.247.63c-.207.37-.311.757-.311 1.142a2.393 2.393 0 0 0 2.39 2.392 2.393 2.393 0 0 0 2.39-2.392c0-.39-.112-.787-.336-1.179a2.362 2.362 0 0 1-.26-.659l-1.8-7.706zm.007 13.706a4.168 4.168 0 0 1-4.162-4.162c0-.69.182-1.367.541-2.01a.635.635 0 0 0 .067-.171L40.257 18.1l3.522 15.072a.586.586 0 0 0 .067.17c.384.67.576 1.364.576 2.064a4.168 4.168 0 0 1-4.163 4.162z"/>
        <path fill="#008A95" d="M40.258.729C18.854.729.771 19.409.771 41.519a2.714 2.714 0 0 0 2.71 2.71h73.55a2.715 2.715 0 0 0 2.712-2.71c0-10.446-4.21-20.849-11.557-28.54C60.643 5.078 50.724.728 40.258.728m0 1.178c21.126 0 38.31 18.49 38.307 39.611 0 .845-.685 1.533-1.534 1.533H3.48a1.532 1.532 0 0 1-1.532-1.533c0-21.124 17.184-39.611 38.309-39.611"/>
        <path fill="#008A95" d="M17.512 31.277h-5.738a1.534 1.534 0 0 0 0 3.066h5.738a1.532 1.532 0 1 0 0-3.066M24.187 14.65a1.537 1.537 0 0 0-2.173 2.173l4.06 4.058a1.524 1.524 0 0 0 2.166 0 1.533 1.533 0 0 0 0-2.172l-4.053-4.059zM56.15 14.617l-4.058 4.058a1.534 1.534 0 1 0 2.168 2.173l4.058-4.06c.6-.6.6-1.569 0-2.171a1.529 1.529 0 0 0-2.169 0M40.221 9.648a.947.947 0 0 0-.946.946v1.025a.947.947 0 0 0 1.896 0v-1.025a.949.949 0 0 0-.95-.946m0 4.093a2.126 2.126 0 0 1-2.122-2.122v-1.025c0-1.17.953-2.122 2.122-2.122 1.172 0 2.126.952 2.126 2.122v1.025c0 1.169-.954 2.122-2.126 2.122M61.102 32.764c0 .85.689 1.534 1.535 1.534h5.738a1.533 1.533 0 0 0 0-3.067h-5.738c-.85 0-1.535.685-1.535 1.533"/>
    </g>
</svg>
