<svg xmlns="http://www.w3.org/2000/svg" width="24" height="24" viewBox="0 0 24 24">
    <path fill="#FFE166" fill-opacity=".9" fill-rule="nonzero" d="M12 0c6.636 0 12 5.364 12 12s-5.364 12-12 12S0 18.636 0 12 5.364 0 12 0zm-.083 7.15v2.49l3.333-3.32L11.917 3v2.49c-3.684 0-6.667 2.972-6.667 6.64 0 1.304.383 2.516 1.033 3.537L7.5 14.455a4.858 4.858 0 0 1-.583-2.324c0-2.748 2.241-4.98 5-4.98zm5.633 1.183l-1.217 1.212a4.98 4.98 0 0 1 .584 2.324c0 2.748-2.242 4.98-5 4.98v-2.49l-3.334 3.32L11.917 21v-2.49c3.683 0 6.666-2.972 6.666-6.64a6.564 6.564 0 0 0-1.033-3.537z"/>
</svg>
