<?xml version="1.0" encoding="utf-8"?>
<!-- Generator: Adobe Illustrator 21.1.0, SVG Export Plug-In . SVG Version: 6.00 Build 0)  -->
<svg version="1.1" id="Layer_1" xmlns="http://www.w3.org/2000/svg" xmlns:xlink="http://www.w3.org/1999/xlink" x="0px" y="0px"
	 viewBox="0 0 16 16" style="enable-background:new 0 0 16 16;" xml:space="preserve">
<style type="text/css">
	.st0{fill:#007DA4;}
</style>
<path class="st0" d="M12.2,8c0-0.6-0.5-1.1-1-1.1H5.6L5.3,5.7C5.1,4.6,5.8,3.5,6.9,3.2C8,3,9.1,3.7,9.3,4.8l0.1,0.7
	c0,0.2,0.2,0.3,0.4,0.3c0,0,0,0,0,0l0.4-0.1c0.2,0,0.3-0.2,0.3-0.4c0,0,0,0,0,0l-0.1-0.7c-0.4-1.7-2.1-2.9-3.9-2.5
	C4.9,2.5,3.8,4.2,4.1,5.9l0.2,0.9H4.1C3.5,6.9,3,7.4,3,8v4.9C3,13.5,3.5,14,4.1,14l6.9,0c0.6,0,1.1-0.5,1.1-1.1L12.2,8L12.2,8z
	 M7.9,10.6V12H7.4v-1.4C7,10.5,6.8,10.1,6.9,9.7C7,9.4,7.3,9.2,7.6,9.2C8,9.1,8.4,9.3,8.6,9.7c0.1,0.4-0.1,0.8-0.4,0.9
	C8.1,10.6,8,10.6,7.9,10.6L7.9,10.6z"/>
</svg>
