<svg xmlns="http://www.w3.org/2000/svg" width="16" height="16" viewBox="0 0 16 16">
    <path fill="#919191" fill-rule="evenodd" d="M11.044 6.882h-.33l-.001-1.642A3.246 3.246 0 0 0 7.469 2a3.246 3.246 0 0 0-3.241 3.244l.002 1.642h-.117C3.498 6.886 3 7.386 3 8v4.887C3 13.502 3.5 14 4.116 14l6.93-.004c.616 0 1.114-.499 1.114-1.114l-.001-4.886c0-.616-.499-1.114-1.114-1.114zm-3.16 3.75l.001 1.385H7.38v-1.384a.727.727 0 0 1 .251-1.41.728.728 0 0 1 .254 1.41zm1.637-3.749l-4.095.002-.002-1.641A2.05 2.05 0 0 1 7.47 3.195a2.05 2.05 0 0 1 2.048 2.046l.003 1.642z"/>
</svg>
