<?xml version="1.0" encoding="UTF-8"?>
<svg width="14px" height="14px" viewBox="0 0 14 14" version="1.1" xmlns="http://www.w3.org/2000/svg" xmlns:xlink="http://www.w3.org/1999/xlink">
    <!-- Generator: Sketch 47.1 (45422) - http://www.bohemiancoding.com/sketch -->
    <title>Group</title>
    <desc>Created with Sketch.</desc>
    <defs></defs>
    <g id="SP-Slider-Concept" stroke="none" stroke-width="1" fill="none" fill-rule="evenodd">
        <g id="Success-Profile_TA_Preview" transform="translate(-1168.000000, -842.000000)">
            <g id="Panel-2-Expanded" transform="translate(226.000000, 673.000000)">
                <g id="Summary" transform="translate(24.000000, 167.000000)">
                    <g id="MarketInsights" transform="translate(573.000000, 0.000000)">
                        <g id="Group" transform="translate(345.000000, 2.000000)">
                            <path d="M6.01832074,11.2847117 C3.10543227,11.2847117 0.744162905,8.92344229 0.744162905,6.01055382 C0.744162905,3.09766535 3.10543227,0.736395993 6.01832074,0.736395993 C8.93102858,0.736395993 11.2924786,3.09766535 11.2924786,6.01055382 C11.2885049,8.92163608 8.92958361,11.280738 6.01832074,11.2847117 M12.0149659,6.01055382 C12.0165915,2.69271118 9.32839664,0.00162633347 6.010554,7.36880444e-07 C2.69271135,-0.00162485971 0.00162650621,2.68657004 9.09614589e-07,6.00441268 C-0.00180530882,9.32225532 2.68657021,12.0133402 6.00441285,12.0149658 C7.47792585,12.0156883 8.90032287,11.4749065 10.0010324,10.4953942 L13.4888402,13.9922331 L14,13.4810733 L10.5031611,9.99326547 C11.4796028,8.89671026 12.0178559,7.47882879 12.0149659,6.01055382" id="Fill-1" fill="#007DA4"></path>
                            <path d="M6,3 C5.78622581,3 5.61290323,3.17332258 5.61290323,3.38709677 L5.61290323,5.61290323 L3.38709677,5.61290323 C3.17332258,5.61290323 3,5.78622581 3,6 C3,6.21377419 3.17332258,6.38709677 3.38709677,6.38709677 L5.61290323,6.38709677 L5.61290323,8.61290323 C5.61290323,8.82667742 5.78622581,9 6,9 C6.21377419,9 6.38709677,8.82667742 6.38709677,8.61290323 L6.38709677,6.38709677 L8.61290323,6.38709677 C8.82667742,6.38709677 9,6.21377419 9,6 C9,5.78622581 8.82667742,5.61290323 8.61290323,5.61290323 L6.38709677,5.61290323 L6.38709677,3.38709677 C6.38709677,3.17332258 6.21377419,3 6,3" id="Path" stroke="#007DA4" fill="#FFFFFF"></path>
                        </g>
                    </g>
                </g>
            </g>
        </g>
    </g>
</svg>