<svg xmlns="http://www.w3.org/2000/svg" width="26" height="22" viewBox="0 0 26 22">
    <path fill="#C792BD" fill-rule="evenodd" d="M.504 14.215c0 4.407 2.608 6.835 5.575 6.835a4.836 4.836 0 0 0 4.857-4.856c0-2.608-1.889-4.587-4.407-4.587-.45 0-1.08.18-1.169.18.36-2.877 2.878-6.474 5.755-8.363L7.788.726C3.651 3.604.504 8.73.504 14.216zm14.388 0c0 4.407 2.608 6.835 5.576 6.835a4.836 4.836 0 0 0 4.856-4.856c0-2.608-1.888-4.587-4.406-4.587-.36 0-.99.18-1.17.18.36-2.877 2.878-6.474 5.756-8.363L22.177.726c-4.137 2.878-7.285 8.004-7.285 13.49z" opacity=".5"/>
</svg>
