<?xml version="1.0" encoding="UTF-8"?>
<svg width="16px" height="22px" viewBox="0 0 16 22" version="1.1" xmlns="http://www.w3.org/2000/svg" xmlns:xlink="http://www.w3.org/1999/xlink">
    <!-- Generator: Sketch 47.1 (45422) - http://www.bohemiancoding.com/sketch -->
    <title>noun_1252462_cc</title>
    <desc>Created with Sketch.</desc>
    <defs></defs>
    <g id="SP-Slider-Concept" stroke="none" stroke-width="1" fill="none" fill-rule="evenodd">
        <g id="Success-Profile_PM" transform="translate(-942.000000, -906.000000)" fill-rule="nonzero" fill="#000000">
            <g id="Bottom-Bar" transform="translate(225.000000, 885.000000)">
                <g id="Reports" transform="translate(717.000000, 21.000000)">
                    <g id="noun_1252462_cc">
                        <g id="Group">
                            <path d="M0.468084872,0.0847631915 C0.210240191,0.0854653191 0.000257212766,0.321883404 -2.34042553e-07,0.552848298 L-2.34042553e-07,21.1486 C2.31702128e-05,21.3936894 0.222995511,21.6166617 0.468084872,21.6166851 L12.170213,21.6166851 C12.2923832,21.6166851 12.41343,21.5646106 12.499347,21.4777106 L15.7759428,18.2011149 C15.8628194,18.1152213 15.9139109,17.9941745 15.9148939,17.8720043 L15.9148939,0.552848298 C15.9148704,0.307765957 15.6918981,0.0847865957 15.4468087,0.0847631915 L0.468084872,0.0847631915 Z M0.936169979,1.0209334 L14.9787236,1.0209334 L14.9787236,17.4039191 L12.170213,17.4039191 C11.8857806,17.4039191 11.7051232,17.6547426 11.7021274,17.8720043 L11.7021274,20.6805149 L0.936169979,20.6805149 L0.936169979,1.0209334 Z M10.4880317,2.44713021 C10.3702615,2.45932383 10.2579444,2.51814809 10.1808508,2.60803447 L7.18950615,6.03090681 L5.66090402,4.88263553 C5.46393381,4.73367915 5.149287,4.77900149 5.00265934,4.97771532 C4.85603168,5.17642915 4.90461891,5.49168915 5.10505296,5.63596 L6.97739338,7.04021064 C7.1634104,7.17794468 7.45292104,7.14763617 7.60638274,6.97439787 L10.8829785,3.22971 C11.0111168,3.09063489 11.0413083,2.87193383 10.9561168,2.70311426 C10.8709253,2.53429234 10.6760147,2.42666553 10.4880317,2.44713021 Z M3.27659551,8.97838723 C3.01807211,8.97838723 2.8085104,9.18794894 2.8085104,9.44647234 C2.8085104,9.70499574 3.01807211,9.91455745 3.27659551,9.91455745 L12.6382981,9.91455745 C12.8968215,9.91455745 13.1063832,9.70499574 13.1063832,9.44647234 C13.1063832,9.18794894 12.8968215,8.97838723 12.6382981,8.97838723 L3.27659551,8.97838723 Z M3.27659551,12.254983 C3.01807211,12.254983 2.8085104,12.4645447 2.8085104,12.7230681 C2.8085104,12.9815915 3.01807211,13.1911532 3.27659551,13.1911532 L12.6382981,13.1911532 C12.8968215,13.1911532 13.1063832,12.9815915 13.1063832,12.7230681 C13.1063832,12.4645447 12.8968215,12.254983 12.6382981,12.254983 L3.27659551,12.254983 Z M3.27659551,15.5315787 C3.01807211,15.5315787 2.8085104,15.7411404 2.8085104,15.9996638 C2.8085104,16.2581872 3.01807211,16.4677489 3.27659551,16.4677489 L12.6382981,16.4677489 C12.8968215,16.4677489 13.1063832,16.2581872 13.1063832,15.9996638 C13.1063832,15.7411404 12.8968215,15.5315787 12.6382981,15.5315787 L3.27659551,15.5315787 Z M12.6382981,18.3400894 L14.3131768,18.3400894 L12.6382981,20.0149447 L12.6382981,18.3400894 Z" id="Shape"></path>
                        </g>
                    </g>
                </g>
            </g>
        </g>
    </g>
</svg>