<svg xmlns="http://www.w3.org/2000/svg" xmlns:xlink="http://www.w3.org/1999/xlink" width="70" height="70" viewBox="0 0 70 70">
    <defs>
        <ellipse id="b" cx="34.477" cy="34.706" rx="33.911" ry="34.042"/>
        <filter id="a" width="173.7%" height="173.4%" x="-36.9%" y="-33.8%" filterUnits="objectBoundingBox">
            <feOffset dy="2" in="SourceAlpha" result="shadowOffsetOuter1"/>
            <feGaussianBlur in="shadowOffsetOuter1" result="shadowBlurOuter1" stdDeviation="8"/>
            <feColorMatrix in="shadowBlurOuter1" values="0 0 0 0 0 0 0 0 0 0 0 0 0 0 0 0 0 0 0.336730072 0"/>
        </filter>
        <ellipse id="d" cx="34.385" cy="34.257" rx="33.911" ry="34.042"/>
        <filter id="c" width="175.2%" height="174.9%" x="-37.6%" y="-34.5%" filterUnits="objectBoundingBox">
            <feMorphology in="SourceAlpha" operator="dilate" radius=".5" result="shadowSpreadOuter1"/>
            <feOffset dy="2" in="shadowSpreadOuter1" result="shadowOffsetOuter1"/>
            <feMorphology in="SourceAlpha" radius="1" result="shadowInner"/>
            <feOffset dy="2" in="shadowInner" result="shadowInner"/>
            <feComposite in="shadowOffsetOuter1" in2="shadowInner" operator="out" result="shadowOffsetOuter1"/>
            <feGaussianBlur in="shadowOffsetOuter1" result="shadowBlurOuter1" stdDeviation="8"/>
            <feColorMatrix in="shadowBlurOuter1" values="0 0 0 0 0 0 0 0 0 0 0 0 0 0 0 0 0 0 0.336730072 0"/>
        </filter>
        <path id="e" d="M16.317 32.083A15.562 15.562 0 0 1 .733 16.5C.733 7.877 7.693.917 16.317.917 24.939.917 31.9 7.877 31.9 16.5c0 8.623-6.96 15.583-15.583 15.583z"/>
    </defs>
    <g fill="none" fill-rule="evenodd">
        <g opacity=".531">
            <use fill="#000" filter="url(#a)" xlink:href="#b"/>
            <use fill="#FFF" xlink:href="#b"/>
        </g>
        <g opacity=".719" transform="translate(.2 .393)">
            <use fill="#000" filter="url(#c)" xlink:href="#d"/>
            <use stroke="#FFF" xlink:href="#d"/>
        </g>
        <g stroke="#FFF" stroke-width=".55" opacity=".662">
            <path d="M22.388 4.41l9.329 14.358L46.643 4.41zM47.438 4.097l-.795 23.724M47.264 26.884l8.707-6.867 3.11 11.862zM55.971 20.017L47.264 4.409M66.543 25.636l-10.572-5.62 6.22-3.745" opacity=".214"/>
            <path d="M66.543 25.636l-7.462 6.243 2.487 23.098-17.413-13.734M23.01 26.884l-18.377-7.18L16.79 17.52l6.22 9.364zm0 0L12.438 38.746 23.01 26.884zM44.777 41.243l14.304-9.989M31.717 18.768L16.79 17.52l5.597-13.11M12.532 38.746L9.639 50.92M22.388 46.862l3.732 21.226-16.17-17.48" opacity=".214"/>
            <path d="M4.353 20.017l8.085 18.729-11.194.624L9.95 50.607l1.244 8.74M9.95 50.607l12.438-3.745M42.911 58.099l-16.17 9.989M42.911 58.099L32.34 53.105M61.568 54.977L42.911 58.1l1.244-8.116" opacity=".214"/>
        </g>
        <g>
            <g transform="translate(19.7 16.3)">
                <mask id="f" fill="#fff">
                    <use xlink:href="#e"/>
                </mask>
                <use fill="#FFF" opacity=".6" xlink:href="#e"/>
                <g fill-rule="nonzero" mask="url(#f)">
                    <path fill="#77BC1F" d="M23.774 20.246a2.969 2.969 0 1 0-5.938 0 2.969 2.969 0 0 0 5.938 0zm.916 0a3.886 3.886 0 1 1-7.771 0 3.886 3.886 0 0 1 7.771 0zM14.567 13.67a2.371 2.371 0 1 0-4.742 0 2.371 2.371 0 0 0 4.742 0zm.917 0a3.288 3.288 0 1 1-6.576 0 3.288 3.288 0 0 1 6.576 0z"/>
                    <path fill="#00ADBB" d="M30.39 10.84a3.208 3.208 0 1 0-6.417 0 3.208 3.208 0 0 0 6.416 0zm.916 0a4.125 4.125 0 1 1-8.25.001 4.125 4.125 0 0 1 8.25 0z"/>
                    <path fill="#920A7A" d="M7.194 24.51a2.292 2.292 0 1 0-4.584.001 2.292 2.292 0 0 0 4.584 0zm.917 0a3.209 3.209 0 1 1-6.418.001 3.209 3.209 0 0 1 6.418 0z"/>
                    <path fill="#002C5C" fill-opacity=".6" d="M7.309 22.127l3.531-5.311-.763-.508-3.531 5.311zM14.667 16l2.712 2.118.564-.722-2.712-2.118zM23.51 17.208l1.816-2.479-.74-.542-1.816 2.48z"/>
                </g>
            </g>
            <path fill="#FFF" fill-opacity=".6" fill-rule="nonzero" d="M13.266 54.24l1.493 1.494 8.623-8.652.315.27a18.937 18.937 0 0 0 12.382 4.596c10.509 0 19.027-8.518 19.027-19.027s-8.518-19.027-19.027-19.027-19.027 8.518-19.027 19.027c0 4.596 1.648 8.953 4.596 12.382l.27.315-8.652 8.623zm22.813-5.75a15.548 15.548 0 0 1-15.57-15.569c0-8.616 6.954-15.57 15.57-15.57s15.57 6.954 15.57 15.57-6.954 15.57-15.57 15.57z"/>
            <path fill="#007DA4" fill-opacity=".6" fill-rule="nonzero" d="M12 54.24L14.76 57l8.672-8.702a19.826 19.826 0 0 0 12.647 4.544C47.08 52.842 56 43.924 56 32.922 56 21.918 47.081 13 36.079 13c-11.003 0-19.921 8.919-19.921 19.921 0 4.671 1.626 9.107 4.544 12.647L12 54.239zm1.266 0l8.652-8.622-.27-.315a18.937 18.937 0 0 1-4.596-12.382c0-10.509 8.518-19.027 19.027-19.027s19.027 8.518 19.027 19.027-8.518 19.027-19.027 19.027a18.937 18.937 0 0 1-12.382-4.596l-.315-.27-8.623 8.652-1.493-1.493zm22.813-5.75a15.548 15.548 0 0 1-15.57-15.569c0-8.616 6.954-15.57 15.57-15.57s15.57 6.954 15.57 15.57-6.954 15.57-15.57 15.57zm0 .895c9.11 0 16.464-7.354 16.464-16.464s-7.355-16.464-16.464-16.464c-9.11 0-16.464 7.355-16.464 16.464 0 9.11 7.354 16.464 16.464 16.464z"/>
        </g>
    </g>
</svg>
