<?xml version="1.0" encoding="UTF-8"?>
<svg width="20px" height="20px" viewBox="0 0 20 20" version="1.1" xmlns="http://www.w3.org/2000/svg" xmlns:xlink="http://www.w3.org/1999/xlink">
    <!-- Generator: Sketch 47.1 (45422) - http://www.bohemiancoding.com/sketch -->
    <title>noun_1039555_cc</title>
    <desc>Created with Sketch.</desc>
    <defs></defs>
    <g id="SP-Slider-Concept" stroke="none" stroke-width="1" fill="none" fill-rule="evenodd">
        <g id="Success-Profile_PM" transform="translate(-620.000000, -907.000000)" fill-rule="nonzero" fill="#000000">
            <g id="Bottom-Bar" transform="translate(225.000000, 885.000000)">
                <g id="Usage" transform="translate(394.000000, 22.000000)">
                    <g id="noun_1039555_cc" transform="translate(1.000000, 0.000000)">
                        <g id="Group">
                            <path d="M19.438,19.9158889 C19.6958889,19.9158889 19.9122222,19.7032222 19.9122222,19.4416667 L19.9122222,0.559555556 L19.9122222,0.548555556 C19.9122222,0.291888889 19.6946667,0.0841111111 19.438,0.0841111111 L16.7857778,0.0841111111 L16.7747778,0.0841111111 C16.5181111,0.0841111111 16.3054444,0.291888889 16.3054444,0.548555556 L16.3054444,19.4306667 L16.3054444,19.4416667 C16.3054444,19.7044444 16.5181111,19.9158889 16.7747778,19.9158889 L19.427,19.9158889 L19.438,19.9158889 L19.438,19.9158889 Z M18.9637778,18.9662222 L17.2428889,18.9662222 L17.2428889,1.02888889 L18.9637778,1.02888889 L18.9637778,18.9662222 Z" id="Shape"></path>
                            <path d="M14.026,19.9158889 C14.2948889,19.9158889 14.5002222,19.6983333 14.5002222,19.4416667 L14.5002222,5.38488889 L14.5002222,5.37388889 C14.5002222,5.10622222 14.2936667,4.90455556 14.026,4.90455556 L11.3798889,4.90455556 L11.3688889,4.90455556 C11.1122222,4.90455556 10.8946667,5.10622222 10.8946667,5.37388889 L10.8946667,19.4257778 L10.8946667,19.4416667 C10.8946667,19.6983333 11.1122222,19.9158889 11.3688889,19.9158889 L14.026,19.9158889 L14.026,19.9158889 Z M11.8492222,5.84322222 L13.5578889,5.84322222 L13.5578889,18.9662222 L11.8492222,18.9662222 L11.8492222,5.84322222 Z" id="Shape"></path>
                            <path d="M3.21544444,14.5442222 L0.562,14.5442222 L0.551,14.5442222 C0.294333333,14.5442222 0.0865555556,14.7507778 0.0865555556,15.0074444 L0.0865555556,19.4306667 L0.0865555556,19.4416667 C0.0865555556,19.7044444 0.293111111,19.9158889 0.551,19.9158889 L3.20444444,19.9158889 L3.21544444,19.9158889 C3.47822222,19.9158889 3.69577778,19.7032222 3.69577778,19.4416667 L3.69577778,15.0233333 L3.69577778,15.0062222 C3.69577778,14.7495556 3.477,14.5442222 3.21544444,14.5442222 Z M2.74611111,18.9662222 L1.02522222,18.9662222 L1.02522222,15.4816667 L2.74488889,15.4816667 L2.74488889,18.9662222 L2.74611111,18.9662222 Z" id="Shape"></path>
                            <path d="M8.62011111,19.9158889 C8.88288889,19.9158889 9.10044444,19.7032222 9.10044444,19.4416667 L9.10044444,10.1992222 L9.10044444,10.1931111 C9.10044444,9.93033333 8.88288889,9.71888889 8.62011111,9.71888889 L5.974,9.71888889 L5.963,9.71888889 C5.69533333,9.71888889 5.48877778,9.93155556 5.48877778,10.1931111 L5.48877778,19.4245556 L5.48877778,19.4404444 C5.48877778,19.7032222 5.69533333,19.9146667 5.963,19.9146667 L8.60422222,19.9146667 L8.62011111,19.9146667 L8.62011111,19.9158889 Z M8.152,18.9662222 L6.43233333,18.9662222 L6.43233333,10.6673333 L8.152,10.6673333 L8.152,18.9662222 Z" id="Shape"></path>
                        </g>
                    </g>
                </g>
            </g>
        </g>
    </g>
</svg>